<svg xmlns="http://www.w3.org/2000/svg" xmlns:xlink="http://www.w3.org/1999/xlink" width="32" height="28.48" viewBox="0 0 32 28.48"><defs><linearGradient id="a" x2="1" y2="1" gradientUnits="objectBoundingBox"><stop offset="0" stop-color="#0188fb"/><stop offset="1" stop-color="#e2f2ff"/></linearGradient></defs><path d="M29.92,4.961h-12l-.64-3.12A1.81,1.81,0,0,0,15.44,0H1.76A1.776,1.776,0,0,0,0,1.761V26.4a2.118,2.118,0,0,0,2.08,2.08H29.92A2.118,2.118,0,0,0,32,26.4V7.041a2.118,2.118,0,0,0-2.08-2.08ZM2,2H15.28l.08.24L16,5.361l.32,1.6h13.6c.08,0,.08,0,.08.08v2.72H2V2Zm27.92,24.48H2.08c-.08,0-.08,0-.08-.08V12.161H30l-.08,14.32h0Z" transform="translate(0 -0.001)" fill="url(#a)"/></svg>