<svg xmlns="http://www.w3.org/2000/svg" xmlns:xlink="http://www.w3.org/1999/xlink" width="34.319" height="31.681" viewBox="0 0 34.319 31.681"><defs><linearGradient id="a" x2="1" y2="1" gradientUnits="objectBoundingBox"><stop offset="0" stop-color="#0188fb"/><stop offset="1" stop-color="#e2f2ff"/></linearGradient></defs><path d="M31.577,69.263a3.147,3.147,0,0,1-3.235,0L13.78,62.807c-.771-.405-.98-1.9-.98-2.718q.973.546,17.16,7.885l14.87-6.761c.026-.007,1.352-.664,2.29-1.126,0,.837-.263,2.389-.984,2.72Zm0-6.761a3.138,3.138,0,0,1-3.235,0L13.78,56.044a1.926,1.926,0,0,1,0-3.186L28.34,45.279a2.917,2.917,0,0,1,3.235,0l14.563,7.581a1.96,1.96,0,0,1,0,3.186ZM29.96,46.565l-14.874,7.89,14.874,6.18,14.87-6.18Zm14.87,21.411c.026-.009,1.352-.666,2.29-1.129,0,.837-.263,2.389-.984,2.72L31.577,76.022a3.138,3.138,0,0,1-3.235,0L13.78,69.568c-.771-.405-.98-1.9-.98-2.718q.973.546,17.16,7.885l14.87-6.761Z" transform="translate(-12.8 -44.79)" fill="url(#a)"/></svg>