<svg xmlns="http://www.w3.org/2000/svg" xmlns:xlink="http://www.w3.org/1999/xlink" width="39.478" height="24.669" viewBox="0 0 39.478 24.669"><defs><linearGradient id="a" x2="1" y2="1" gradientUnits="objectBoundingBox"><stop offset="0" stop-color="#0188fb"/><stop offset="1" stop-color="#e2f2ff"/></linearGradient></defs><g transform="translate(0 -192)"><path d="M19.484,216.669c-7.129,0-14.209-5-18.457-9.678a3.959,3.959,0,0,1,0-5.315C5.275,197,12.355,192,19.482,192l.266,0,.24,0c7.128,0,14.211,5,18.462,9.672a3.958,3.958,0,0,1,0,5.317c-4.253,4.68-11.348,9.68-18.508,9.68l-.225,0-.237,0Zm.474-2.467c6.348,0,12.773-4.582,16.669-8.871a1.5,1.5,0,0,0,0-2c-3.894-4.282-10.308-8.861-16.62-8.861l-.286,0H19.5c-6.335,0-12.754,4.578-16.648,8.864a1.5,1.5,0,0,0,0,2c3.891,4.284,10.31,8.866,16.653,8.866l.217,0,.23,0Z" fill="url(#a)"/><path d="M327.448,334.8a7.4,7.4,0,1,1,7.4-7.4A7.409,7.409,0,0,1,327.448,334.8Zm0-12.334a4.934,4.934,0,1,0,4.932,4.934A4.94,4.94,0,0,0,327.45,322.467Z" transform="translate(-307.711 -123.066)" fill="url(#a)"/></g></svg>