<svg xmlns="http://www.w3.org/2000/svg" xmlns:xlink="http://www.w3.org/1999/xlink" width="34.165" height="34.202" viewBox="0 0 34.165 34.202"><defs><linearGradient id="a" x2="1" y2="1" gradientUnits="objectBoundingBox"><stop offset="0" stop-color="#0188fb"/><stop offset="1" stop-color="#e2f2ff"/></linearGradient></defs><path d="M78.666,91.038a1.016,1.016,0,0,1-.37.066h0a.968.968,0,0,1-.7-.283h0a1.007,1.007,0,0,1-.282-.7h0a1.015,1.015,0,0,1,.065-.37h0a.861.861,0,0,1,.217-.326h0l3.064-3.068h0a.86.86,0,0,1,.326-.217,1.019,1.019,0,0,1,.369-.087.983.983,0,0,1,.7.3.968.968,0,0,1,.283.7,1.012,1.012,0,0,1-.065.37h0a.865.865,0,0,1-.218.326h0l-3.064,3.068h0a1.21,1.21,0,0,1-.326.217ZM63.952,80.508,78.3,94.868,89.163,83.989,74.819,69.608H64.5a.543.543,0,0,0-.391.174h0a.5.5,0,0,0-.153.392ZM75.6,67.715a1.213,1.213,0,0,1,.327.217h0L91.25,83.293h0a.721.721,0,0,1,.217.3h0a1.146,1.146,0,0,1,.087.392h0a1.028,1.028,0,0,1-.087.37h0a.954.954,0,0,1-.217.326h0L78.992,96.956h0a.862.862,0,0,1-.326.218h0a1.085,1.085,0,0,1-.739,0,.856.856,0,0,1-.326-.218h0L62.257,81.618V81.6a.9.9,0,0,1-.2-.3.792.792,0,0,1-.087-.391V70.174a2.515,2.515,0,0,1,.739-1.784h0a2.51,2.51,0,0,1,1.782-.74H75.232a1.012,1.012,0,0,1,.369.066ZM74.537,87.753h0a1,1,0,0,1-.282-.7,1.23,1.23,0,0,1,.065-.391h0a.978.978,0,0,1,.217-.3l.761-.783a.817.817,0,0,1,.326-.2.713.713,0,0,1,.37-.087h0a.966.966,0,0,1,.7.283h0a1.049,1.049,0,0,1,.283.7h0a1.143,1.143,0,0,1-.066.392.985.985,0,0,1-.217.3h0l-.76.783a1.2,1.2,0,0,1-.327.218h0a1.011,1.011,0,0,1-.369.065h0a.965.965,0,0,1-.7-.283Zm6-24.433,15.323,15.36h0a.86.86,0,0,1,.217.326,1.087,1.087,0,0,1,0,.74.862.862,0,0,1-.217.327h0l-2.3,2.306h0a1.518,1.518,0,0,1-.3.217,1.21,1.21,0,0,1-.391.066.994.994,0,0,1-.913-1.349,1.211,1.211,0,0,1,.217-.326h0l1.608-1.61L79.426,65.017H69.1a.493.493,0,0,0-.391.152h0a.544.544,0,0,0-.174.392,1.008,1.008,0,0,1-.283.7.966.966,0,0,1-.7.283.966.966,0,0,1-.978-.979h0a2.516,2.516,0,0,1,.74-1.784h0a2.51,2.51,0,0,1,1.782-.74H79.818a.8.8,0,0,1,.391.087.923.923,0,0,1,.3.2h.021ZM78.666,84.882a.719.719,0,0,1-.37.087h0a.968.968,0,0,1-.7-.283,1.007,1.007,0,0,1-.282-.7h0a1.234,1.234,0,0,1,.065-.392.975.975,0,0,1,.217-.3h0l1.521-1.545h.022a1.522,1.522,0,0,1,.3-.218,1.1,1.1,0,0,1,.37-.065h.021a.952.952,0,0,1,.674.283h.021a1.006,1.006,0,0,1,.283.7h0a.719.719,0,0,1-.087.37.821.821,0,0,1-.2.326l-1.543,1.545a.821.821,0,0,1-.326.2Zm-9.954-9.726a.507.507,0,0,0,.391.174h0a.462.462,0,0,0,.369-.174.508.508,0,0,0,.174-.392h0a.543.543,0,0,0-.174-.392.522.522,0,0,0-.369-.153h0a.577.577,0,0,0-.391.153.543.543,0,0,0-.174.392.508.508,0,0,0,.174.392ZM67.321,72.98a2.511,2.511,0,0,1,1.782-.74h0a2.513,2.513,0,0,1,1.782.74,2.577,2.577,0,0,1,0,3.568,2.513,2.513,0,0,1-1.782.74h0a2.511,2.511,0,0,1-1.782-.74h0a2.517,2.517,0,0,1-.74-1.784h0a2.517,2.517,0,0,1,.74-1.784Z" transform="translate(-61.975 -63.037)" fill="url(#a)"/></svg>