<svg xmlns="http://www.w3.org/2000/svg" xmlns:xlink="http://www.w3.org/1999/xlink" width="27.997" height="33.594" viewBox="0 0 27.997 33.594"><defs><linearGradient id="a" x2="1" y2="1" gradientUnits="objectBoundingBox"><stop offset="0" stop-color="#0188fb"/><stop offset="1" stop-color="#e2f2ff"/></linearGradient></defs><path d="M104.388,31.9h0l-.293.293a1.974,1.974,0,0,0-1.945-.8v-.416l8.592-8.593h.415a1.972,1.972,0,0,0,.8,1.945l-.292.292h-8.392a1.11,1.11,0,0,0,1.11-1.11V31.9Zm-2.238-.43V23.5a1.128,1.128,0,0,1,1.127-1.127h7.909V17.881s0-15.784,0-15.784-23.666,0-23.666,0,0,29.37,0,29.37h14.632Zm11.188-8.873a.419.419,0,0,1-.1.433,1.064,1.064,0,0,1-.464.481l-9.561,9.562a1.07,1.07,0,0,1-.328.326c-.209.189-.394.24-.527.167H87.519a2.124,2.124,0,0,1-2.15-2.1V2.1A2.124,2.124,0,0,1,87.521,0h23.665a2.125,2.125,0,0,1,2.152,2.108V22.585s0,.005,0,.008ZM92.082,8.95A1.118,1.118,0,0,1,93.2,7.831h12.31a1.119,1.119,0,0,1,0,2.238H93.2A1.115,1.115,0,0,1,92.082,8.95Zm0,5.594A1.118,1.118,0,0,1,93.2,13.425h12.31a1.119,1.119,0,0,1,0,2.238H93.2a1.115,1.115,0,0,1-1.117-1.119Z" transform="translate(-85.369)" fill="url(#a)"/></svg>