<svg xmlns="http://www.w3.org/2000/svg" xmlns:xlink="http://www.w3.org/1999/xlink" width="30.592" height="34.014" viewBox="0 0 30.592 34.014"><defs><linearGradient id="a" x2="1" y2="1" gradientUnits="objectBoundingBox"><stop offset="0" stop-color="#0188fb"/><stop offset="1" stop-color="#e2f2ff"/></linearGradient></defs><g transform="translate(-492.5 -218.5)"><path d="M100.5,25.381h0l-.233.233a1.571,1.571,0,0,0-1.548-.639v-.331l6.837-6.838h.33a1.57,1.57,0,0,0,.64,1.548l-.232.233H99.62a.883.883,0,0,0,.884-.883v6.678Zm-1.781-.342V18.7a.9.9,0,0,1,.9-.9h6.294V14.229s0-12.56,0-12.56-18.832,0-18.832,0,0,23.371,0,23.371H98.723Zm8.9-7.061a.333.333,0,0,1-.079.345.847.847,0,0,1-.369.383L99.57,26.315a.852.852,0,0,1-.261.259c-.166.15-.314.191-.419.133H87.08a1.69,1.69,0,0,1-1.711-1.668V1.668A1.69,1.69,0,0,1,87.082,0h18.832a1.691,1.691,0,0,1,1.713,1.677V17.972s0,0,0,.006ZM90.711,7.122a.89.89,0,0,1,.889-.89h9.8a.89.89,0,0,1,0,1.781H91.6a.887.887,0,0,1-.889-.89Zm0,4.451a.89.89,0,0,1,.889-.89h9.8a.89.89,0,0,1,0,1.781H91.6a.887.887,0,0,1-.889-.89Z" transform="translate(415.444 225.781)" fill="url(#a)"/><path d="M474.76,292.95h-4.445a1.69,1.69,0,0,1-1.711-1.667V267.909a1.69,1.69,0,0,1,1.713-1.667h18.831a1.69,1.69,0,0,1,1.713,1.668V271h-1.712v-3.085H470.317v23.371h4.445Z" transform="translate(24.396 -47.242)" stroke="rgba(0,0,0,0)" stroke-width="1" fill="url(#a)"/></g></svg>