<svg xmlns="http://www.w3.org/2000/svg" xmlns:xlink="http://www.w3.org/1999/xlink" width="31.554" height="27.106" viewBox="0 0 31.554 27.106"><defs><linearGradient id="a" x2="1" y2="1" gradientUnits="objectBoundingBox"><stop offset="0" stop-color="#0188fb"/><stop offset="1" stop-color="#e2f2ff"/></linearGradient></defs><path d="M74.129,137.74a2.047,2.047,0,1,0,1.972,2.046,2.01,2.01,0,0,0-1.972-2.046Zm7.89,0a2.047,2.047,0,1,0,1.971,2.046,2.01,2.01,0,0,0-1.971-2.046Zm7.888,0a2.047,2.047,0,1,0,1.972,2.046,2.011,2.011,0,0,0-1.972-2.046Zm3.945-9.251H70.186a4.021,4.021,0,0,0-3.945,4.092v13.387a4.286,4.286,0,0,0,4.033,4.342h6.012c1.047,1.116,5.384,5.134,5.384,5.134a.478.478,0,0,0,.7,0s3.176-3.128,5.244-5.134h6.152a4.286,4.286,0,0,0,4.033-4.342V132.581a4.021,4.021,0,0,0-3.943-4.092Zm1.971,17.479a2.319,2.319,0,0,1-2.061,2.315H87.713a2.249,2.249,0,0,0-1.392.753l-4.247,3.935-4.247-3.935a2.861,2.861,0,0,0-1.5-.753H70.274a2.319,2.319,0,0,1-2.061-2.315V132.581a2.009,2.009,0,0,1,1.972-2.046H93.852a2.009,2.009,0,0,1,1.971,2.046v13.387Z" transform="translate(-66.241 -128.489)" fill="url(#a)"/></svg>