<svg xmlns="http://www.w3.org/2000/svg" xmlns:xlink="http://www.w3.org/1999/xlink" width="36" height="36" viewBox="0 0 36 36"><defs><linearGradient id="a" x2="1" y2="1" gradientUnits="objectBoundingBox"><stop offset="0" stop-color="#0188fb"/><stop offset="1" stop-color="#e2f2ff"/></linearGradient></defs><path d="M92.667,74.667a18,18,0,1,0,18,18A18.025,18.025,0,0,0,92.667,74.667Zm-9.22,30.293a9.22,9.22,0,1,1,18.439,0,15.366,15.366,0,0,1-18.439,0Zm5.268-15.8a3.951,3.951,0,1,1,3.951,3.951A3.935,3.935,0,0,1,88.715,89.155Zm15.541,13.522a11.889,11.889,0,0,0-7.2-8.693,6.5,6.5,0,0,0,2.107-4.829,6.585,6.585,0,0,0-13.171,0A6.5,6.5,0,0,0,88.1,93.984a11.889,11.889,0,0,0-7.2,8.693,15.4,15.4,0,1,1,27.132-10.01,15.043,15.043,0,0,1-3.776,10.01Z" transform="translate(-74.667 -74.667)" fill="url(#a)"/></svg>