<svg xmlns="http://www.w3.org/2000/svg" width="16" height="16" viewBox="0 0 16 16"><g transform="translate(-30 -323)"><rect width="6" height="1" transform="translate(45 329) rotate(-90)" fill="#333"/><rect width="4" height="1" transform="translate(36 327) rotate(-90)" fill="#333"/><rect width="6" height="1" transform="translate(42 335) rotate(-90)" fill="#333"/><rect width="6" height="1" transform="translate(30 335) rotate(-90)" fill="#333"/><rect width="8" height="2" transform="translate(37 323)" fill="#333"/><rect width="3" height="1" transform="translate(43 329)" fill="#333"/><rect width="13" height="2" transform="translate(30 327)" fill="#333"/><rect width="5" height="1" transform="translate(30 335)" fill="#333"/><rect width="5" height="1" transform="translate(38 335)" fill="#333"/><rect width="1" height="1" transform="translate(37 336)" fill="#333"/><rect width="1" height="2" transform="translate(33 331)" fill="#333"/><rect width="1" height="2" transform="translate(36 331)" fill="#333"/><rect width="1" height="2" transform="translate(39 331)" fill="#333"/><rect width="1" height="1" transform="translate(36 337)" fill="#333"/><rect width="1" height="1" transform="translate(34 337)" fill="#333"/><rect width="2" height="1" transform="translate(34 338)" fill="#333"/><rect width="1" height="1" transform="translate(34 336)" fill="#333"/></g></svg>