<svg xmlns="http://www.w3.org/2000/svg" width="16" height="16" viewBox="0 0 16 16"><g transform="translate(-30 -435)"><rect width="4" height="1" transform="translate(30 435)" fill="#333"/><rect width="4" height="1" transform="translate(30 450)" fill="#333"/><rect width="4" height="1" transform="translate(42 450)" fill="#333"/><rect width="4" height="1" transform="translate(42 435)" fill="#333"/><rect width="1" height="4" transform="translate(30 435)" fill="#333"/><rect width="1" height="4" transform="translate(30 447)" fill="#333"/><rect width="1" height="4" transform="translate(45 447)" fill="#333"/><rect width="1" height="4" transform="translate(45 435)" fill="#333"/><rect width="4" height="1" transform="translate(36 437)" fill="#333"/><rect width="4" height="1" transform="translate(36 442)" fill="#333"/><rect width="2" height="1" transform="translate(34 444)" fill="#333"/><rect width="2" height="1" transform="translate(40 444)" fill="#333"/><rect width="2" height="1" transform="translate(33 445)" fill="#333"/><rect width="2" height="1" transform="translate(41 445)" fill="#333"/><rect width="1" height="2" transform="translate(32 447)" fill="#333"/><rect width="1" height="2" transform="translate(43 447)" fill="#333"/><rect width="1" height="1" transform="translate(33 446)" fill="#333"/><rect width="1" height="1" transform="translate(42 446)" fill="#333"/><rect width="1" height="4" transform="translate(35 438)" fill="#333"/><rect width="1" height="4" transform="translate(40 438)" fill="#333"/></g></svg>