<svg xmlns="http://www.w3.org/2000/svg" width="16" height="15.559" viewBox="0 0 16 15.559"><g transform="translate(-128 -128.017)"><path d="M142.527,137.159a2.671,2.671,0,0,0-2.085,3.608,6.646,6.646,0,0,1-2.359,1.364,2.672,2.672,0,0,0-4.169,0,6.651,6.651,0,0,1-2.359-1.363,2.67,2.67,0,0,0-2.085-3.608,6.734,6.734,0,0,1,0-2.725,2.669,2.669,0,0,0,2.085-3.608,6.645,6.645,0,0,1,2.359-1.364,2.67,2.67,0,0,0,4.169,0,6.64,6.64,0,0,1,2.359,1.364,2.67,2.67,0,0,0,2.085,3.608,6.7,6.7,0,0,1,0,2.725m1.17-3.548a.662.662,0,0,0-.684-.483,1.335,1.335,0,0,1-1.2-2.071.667.667,0,0,0-.077-.832,7.987,7.987,0,0,0-3.785-2.187.666.666,0,0,0-.76.351,1.334,1.334,0,0,1-2.391,0,.667.667,0,0,0-.76-.351,7.985,7.985,0,0,0-3.785,2.187.667.667,0,0,0-.077.833,1.334,1.334,0,0,1-1.2,2.07.657.657,0,0,0-.683.483,8.042,8.042,0,0,0,0,4.371.665.665,0,0,0,.683.483,1.335,1.335,0,0,1,1.2,2.07.667.667,0,0,0,.077.833,7.977,7.977,0,0,0,3.785,2.187.665.665,0,0,0,.76-.35,1.334,1.334,0,0,1,2.391,0,.667.667,0,0,0,.76.351,7.98,7.98,0,0,0,3.785-2.187.667.667,0,0,0,.077-.833,1.334,1.334,0,0,1,1.2-2.069.669.669,0,0,0,.684-.483,8.046,8.046,0,0,0,0-4.372" transform="translate(0)" fill="#333"/><path d="M355.333,346.773a2,2,0,1,1,2-2,2,2,0,0,1-2,2m0-5.333a3.333,3.333,0,1,0,3.333,3.333,3.337,3.337,0,0,0-3.333-3.333" transform="translate(-219.334 -208.977)" fill="#333"/></g></svg>