<svg xmlns="http://www.w3.org/2000/svg" width="16" height="16" viewBox="0 0 16 16"><g transform="translate(-30 -391)"><rect width="8" height="2" transform="translate(30 392)" fill="#0188fb"/><rect width="7" height="1" transform="translate(30 391)" fill="#0188fb"/><rect width="4" height="1" transform="translate(40 395)" fill="#0188fb"/><rect width="1" height="1" transform="translate(38 393)" fill="#0188fb"/><rect width="1" height="1" transform="translate(39 394)" fill="#0188fb"/><rect width="1" height="15" transform="translate(30 392)" fill="#0188fb"/><rect width="11" height="1" transform="translate(34 398)" fill="#0188fb"/><rect width="1" height="2" transform="translate(31 405)" fill="#0188fb"/><rect width="1" height="2" transform="translate(43 405)" fill="#0188fb"/><rect width="1" height="4" transform="translate(32 401)" fill="#0188fb"/><rect width="1" height="4" transform="translate(44 401)" fill="#0188fb"/><rect width="1" height="3" transform="translate(33 398)" fill="#0188fb"/><rect width="1" height="3" transform="translate(45 398)" fill="#0188fb"/><rect width="12" height="1" transform="translate(31 406)" fill="#0188fb"/><rect width="1" height="2" transform="translate(43 396)" fill="#0188fb"/></g></svg>