<svg xmlns="http://www.w3.org/2000/svg" width="16" height="16" viewBox="0 0 16 16"><g transform="translate(-30 -611)"><rect width="7" height="1" transform="translate(30 618) rotate(-90)" fill="#0188fb"/><rect width="7" height="1" transform="translate(36 618) rotate(-90)" fill="#0188fb"/><rect width="7" height="2" transform="translate(30 611)" fill="#0188fb"/><rect width="7" height="2" transform="translate(30 620)" fill="#0188fb"/><rect width="1" height="1" transform="translate(42 611)" fill="#0188fb"/><rect width="3" height="1" transform="translate(41 612)" fill="#0188fb"/><rect width="5" height="1" transform="translate(40 613)" fill="#0188fb"/><rect width="7" height="1" transform="translate(39 614)" fill="#0188fb"/><rect width="5" height="1" transform="translate(40 615)" fill="#0188fb"/><rect width="3" height="1" transform="translate(41 616)" fill="#0188fb"/><rect width="1" height="1" transform="translate(42 617)" fill="#0188fb"/><rect width="7" height="2" transform="translate(39 620)" fill="#0188fb"/><rect width="7" height="1" transform="translate(30 617)" fill="#0188fb"/><rect width="7" height="1" transform="translate(30 626)" fill="#0188fb"/><rect width="7" height="1" transform="translate(39 626)" fill="#0188fb"/><rect width="7" height="1" transform="translate(30 627) rotate(-90)" fill="#0188fb"/><rect width="7" height="1" transform="translate(36 627) rotate(-90)" fill="#0188fb"/><rect width="7" height="1" transform="translate(39 627) rotate(-90)" fill="#0188fb"/><rect width="7" height="1" transform="translate(45 627) rotate(-90)" fill="#0188fb"/></g></svg>