<svg xmlns="http://www.w3.org/2000/svg" width="16" height="16" viewBox="0 0 16 16"><g transform="translate(-30 -479)"><rect width="1" height="1" transform="translate(36 480)" fill="#0188fb"/><rect width="1" height="1" transform="translate(33 480)" fill="#0188fb"/><rect width="2" height="1" transform="translate(32 481)" fill="#0188fb"/><rect width="1" height="1" transform="translate(32 486)" fill="#0188fb"/><rect width="1" height="1" transform="translate(34 486)" fill="#0188fb"/><rect width="1" height="1" transform="translate(44 485)" fill="#0188fb"/><rect width="1" height="1" transform="translate(43 486)" fill="#0188fb"/><rect width="1" height="1" transform="translate(41 486)" fill="#0188fb"/><rect width="8" height="1" transform="translate(34 494)" fill="#0188fb"/><rect width="1" height="7" transform="translate(33 487)" fill="#0188fb"/><rect width="1" height="7" transform="translate(42 487)" fill="#0188fb"/><rect width="2" height="1" transform="translate(31 482)" fill="#0188fb"/><rect width="1" height="1" transform="translate(31 485)" fill="#0188fb"/><rect width="1" height="1" transform="translate(31 483)" fill="#0188fb"/><rect width="1" height="1" transform="translate(44 483)" fill="#0188fb"/><rect width="1" height="2" transform="translate(30 483)" fill="#0188fb"/><rect width="2" height="1" transform="translate(34 479)" fill="#0188fb"/><rect width="4" height="1" transform="translate(36 481)" fill="#0188fb"/><rect width="1" height="1" transform="translate(39 480)" fill="#0188fb"/><rect width="1" height="1" transform="translate(42 480)" fill="#0188fb"/><rect width="2" height="1" transform="translate(42 481)" fill="#0188fb"/><rect width="2" height="1" transform="translate(43 482)" fill="#0188fb"/><rect width="1" height="2" transform="translate(45 483)" fill="#0188fb"/><rect width="2" height="1" transform="translate(40 479)" fill="#0188fb"/></g></svg>