<svg xmlns="http://www.w3.org/2000/svg" width="16" height="16" viewBox="0 0 16 16"><g transform="translate(-30 -523)"><rect width="4" height="1" transform="translate(31 526)" fill="#0188fb"/><rect width="3" height="1" transform="translate(35 523)" fill="#0188fb"/><rect width="4" height="1" transform="translate(38 526)" fill="#0188fb"/><rect width="3" height="1" transform="translate(30 530)" fill="#0188fb"/><rect width="3" height="1" transform="translate(30 534)" fill="#0188fb"/><rect width="3" height="1" transform="translate(35 535)" fill="#0188fb"/><rect width="2" height="1" transform="translate(43 534)" fill="#0188fb"/><rect width="2" height="1" transform="translate(43 530)" fill="#0188fb"/><rect width="4" height="1" transform="translate(31 538)" fill="#0188fb"/><rect width="4" height="1" transform="translate(38 538)" fill="#0188fb"/><rect width="1" height="3" transform="translate(30 527)" fill="#0188fb"/><rect width="1" height="4" transform="translate(42 527)" fill="#0188fb"/><rect width="1" height="3" transform="translate(30 535)" fill="#0188fb"/><rect width="1" height="2" transform="translate(34 536)" fill="#0188fb"/><rect width="1" height="2" transform="translate(38 536)" fill="#0188fb"/><rect width="1" height="4" transform="translate(42 534)" fill="#0188fb"/><rect width="1" height="3" transform="translate(45 531)" fill="#0188fb"/><rect width="1" height="3" transform="translate(33 531)" fill="#0188fb"/><rect width="1" height="2" transform="translate(34 524)" fill="#0188fb"/><rect width="1" height="2" transform="translate(38 524)" fill="#0188fb"/></g></svg>