<svg xmlns="http://www.w3.org/2000/svg" width="15" height="16" viewBox="0 0 15 16"><g transform="translate(-31 -127)"><rect width="16" height="1" transform="translate(31 143) rotate(-90)" fill="#0188fb"/><rect width="5" height="1" transform="translate(44 132) rotate(-90)" fill="#0188fb"/><rect width="14" height="2" transform="translate(31 127)" fill="#0188fb"/><rect width="3" height="1" transform="translate(31 142)" fill="#0188fb"/><rect width="8" height="1" transform="translate(34 131)" fill="#0188fb"/><rect width="4" height="1" transform="translate(34 134)" fill="#0188fb"/><rect width="2" height="2" transform="translate(44 133)" fill="#0188fb"/><rect width="2" height="2" transform="translate(43 134)" fill="#0188fb"/><rect width="2" height="2" transform="translate(42 135)" fill="#0188fb"/><rect width="2" height="2" transform="translate(41 136)" fill="#0188fb"/><rect width="2" height="2" transform="translate(40 137)" fill="#0188fb"/><rect width="2" height="2" transform="translate(39 138)" fill="#0188fb"/><rect width="2" height="2" transform="translate(38 139)" fill="#0188fb"/><rect width="2" height="2" transform="translate(37 140)" fill="#0188fb"/><rect width="2" height="2" transform="translate(36 141)" fill="#0188fb"/><rect width="4" height="1" transform="translate(41 142)" fill="#0188fb"/><rect width="4" height="1" transform="translate(45 138.95) rotate(90)" fill="#0188fb"/></g></svg>