<svg xmlns="http://www.w3.org/2000/svg" width="16" height="16" viewBox="0 0 16 16"><g transform="translate(-30 -303)"><rect width="9" height="1" transform="translate(37 303)" fill="#0188fb"/><rect width="3" height="1" transform="translate(39 306)" fill="#0188fb"/><rect width="3" height="1" transform="translate(39 310)" fill="#0188fb"/><rect width="3" height="1" transform="translate(39 307) rotate(90)" fill="#0188fb"/><rect width="3" height="1" transform="translate(43 307) rotate(90)" fill="#0188fb"/><rect width="10" height="1" transform="translate(45 313) rotate(-90)" fill="#0188fb"/><rect width="1" height="1" transform="translate(30 311)" fill="#0188fb"/><rect width="1" height="2" transform="translate(31 311)" fill="#0188fb"/><rect width="1" height="2" transform="translate(32 312)" fill="#0188fb"/><rect width="1" height="2" transform="translate(33 313)" fill="#0188fb"/><rect width="1" height="2" transform="translate(34 314)" fill="#0188fb"/><rect width="1" height="2" transform="translate(35 315)" fill="#0188fb"/><rect width="1" height="2" transform="translate(36 316)" fill="#0188fb"/><rect width="1" height="1" transform="translate(37 317)" fill="#0188fb"/><rect width="3" height="1" transform="translate(37 318)" fill="#0188fb"/><rect width="1" height="2" transform="translate(30 309)" fill="#0188fb"/><rect width="1" height="2" transform="translate(31 308)" fill="#0188fb"/><rect width="1" height="2" transform="translate(32 307)" fill="#0188fb"/><rect width="1" height="1" transform="translate(40 317)" fill="#0188fb"/><rect width="1" height="2" transform="translate(33 306)" fill="#0188fb"/><rect width="1" height="1" transform="translate(41 316)" fill="#0188fb"/><rect width="1" height="2" transform="translate(34 305)" fill="#0188fb"/><rect width="1" height="1" transform="translate(42 315)" fill="#0188fb"/><rect width="1" height="2" transform="translate(35 304)" fill="#0188fb"/><rect width="1" height="1" transform="translate(43 314)" fill="#0188fb"/><rect width="1" height="2" transform="translate(36 303)" fill="#0188fb"/><rect width="1" height="1" transform="translate(44 313)" fill="#0188fb"/></g></svg>