<svg xmlns="http://www.w3.org/2000/svg" width="29.257" height="32.657" viewBox="0 0 29.257 32.657"><g transform="translate(-30 -14)"><path d="M28.622,13.011,18.083,6.867a4.01,4.01,0,0,0-4.112,0L3.432,13.011A4.086,4.086,0,0,0,1.4,16.556V28.749a4.03,4.03,0,0,0,2.032,3.545l10.539,6.1a4.01,4.01,0,0,0,4.112,0L28.622,32.2a4.086,4.086,0,0,0,2.032-3.545V16.461A3.792,3.792,0,0,0,28.622,13.011Z" transform="translate(28.6 7.7)" fill="#0188fb"/><path d="M20.817,35.769h8.649a1.918,1.918,0,0,1,1.985,1.89,1.967,1.967,0,0,1-1.985,1.985H16.185A1.967,1.967,0,0,1,14.2,37.66a1.818,1.818,0,0,1,.567-1.371L24.786,26.27h-8.6a1.985,1.985,0,0,1,0-3.97H29.513A1.967,1.967,0,0,1,31.5,24.285a1.991,1.991,0,0,1-.473,1.229l-.095.142c-.047.095-.047.047-.095.095l-2.788,2.788v-.047Z" transform="translate(21.849 -0.738)" fill="#fff"/></g></svg>