<svg xmlns="http://www.w3.org/2000/svg" width="54.539" height="30.046" viewBox="0 0 54.539 30.046"><g transform="translate(-63.461 -16.47)"><g transform="translate(63.461 19.293)"><path d="M80.423,23.266a7.244,7.244,0,0,1,5.2,2.079A7.51,7.51,0,0,1,87.8,30.969a7.962,7.962,0,0,1-2.174,5.719,6.651,6.651,0,0,1-5.01,2.221,6.753,6.753,0,0,1-5.151-2.5L72.2,38.72l.047-.047V17.5h3.214v8.649A5.719,5.719,0,0,1,80.423,23.266Zm-4.962,7.8a5.052,5.052,0,0,0,1.323,3.545A4.284,4.284,0,0,0,80,35.979a4.542,4.542,0,0,0,3.261-1.371,4.63,4.63,0,0,0,1.371-3.545,5.077,5.077,0,0,0-1.371-3.592A4.333,4.333,0,0,0,80,26.054a4.406,4.406,0,0,0-3.261,1.418A5.3,5.3,0,0,0,75.461,31.064Z" transform="translate(-72.2 -17.5)" fill="#fff"/><path d="M112.514,38.673H109.3V17.5h3.214Z" transform="translate(-91.766 -17.5)" fill="#fff"/><path d="M133.653,43.028a8.342,8.342,0,0,1-11.437,0A7.567,7.567,0,0,1,119.9,37.5a7.389,7.389,0,0,1,2.316-5.53,8.342,8.342,0,0,1,11.437,0,7.567,7.567,0,0,1,2.316,5.53A7.389,7.389,0,0,1,133.653,43.028Zm-9.121-1.938a5.028,5.028,0,0,0,6.9,0,4.884,4.884,0,0,0,1.371-3.545A4.808,4.808,0,0,0,131.432,34a5.028,5.028,0,0,0-6.9,0,4.885,4.885,0,0,0-1.371,3.545A4.963,4.963,0,0,0,124.532,41.09Z" transform="translate(-97.357 -23.934)" fill="#fff"/><path d="M170.882,29.936V43.169a7.894,7.894,0,0,1-2.174,6,7.937,7.937,0,0,1-5.624,1.985,9.839,9.839,0,0,1-6.191-2.127l1.512-2.41a7.611,7.611,0,0,0,4.49,1.7,5.383,5.383,0,0,0,3.592-1.182,4.6,4.6,0,0,0,1.323-3.734V41.468a5.178,5.178,0,0,1-2.032,2.127,5.817,5.817,0,0,1-2.977.756,6.561,6.561,0,0,1-4.962-2.079,7.285,7.285,0,0,1-1.938-5.246,7.491,7.491,0,0,1,1.938-5.246A6.561,6.561,0,0,1,162.8,29.7a5.722,5.722,0,0,1,4.868,2.5l1.654-1.134Zm-11.815,6.947a5.073,5.073,0,0,0,1.134,3.261,3.877,3.877,0,0,0,3.119,1.371,4.239,4.239,0,0,0,3.167-1.323,4.655,4.655,0,0,0,1.229-3.261,4.773,4.773,0,0,0-1.229-3.308,4.111,4.111,0,0,0-3.167-1.371,3.782,3.782,0,0,0-3.072,1.371A4.953,4.953,0,0,0,159.066,36.884Z" transform="translate(-116.343 -23.934)" fill="#fff"/></g><g transform="translate(94.177 16.47)"><path d="M144.9,12.364a7.07,7.07,0,0,0-7.231.331,1.062,1.062,0,1,0,1.134,1.8A5.116,5.116,0,0,1,146.7,18.65a1.433,1.433,0,0,0,.378.756,1.34,1.34,0,0,0,.756.284,1.207,1.207,0,0,0,1.04-1.087A7.746,7.746,0,0,0,144.9,12.364Z" transform="translate(-137.192 -11.526)" fill="#0188fb"/><path d="M145.262,19.958a3.631,3.631,0,0,0-3.545.142.885.885,0,1,0,.992,1.465,1.578,1.578,0,0,1,1.7-.095,1.8,1.8,0,0,1,.945,1.465.988.988,0,0,0,.992.945h0a.872.872,0,0,0,.851-.945A3.545,3.545,0,0,0,145.262,19.958Z" transform="translate(-139.351 -15.764)" fill="#0188fb"/></g></g></svg>